<?xml version="1.0" encoding="utf-8"?>
<!-- Generator: Adobe Illustrator 17.0.0, SVG Export Plug-In . SVG Version: 6.00 Build 0)  -->
<!DOCTYPE svg PUBLIC "-//W3C//DTD SVG 1.1//EN" "http://www.w3.org/Graphics/SVG/1.1/DTD/svg11.dtd">
<svg version="1.1" xmlns="http://www.w3.org/2000/svg" xmlns:xlink="http://www.w3.org/1999/xlink" x="0px" y="0px" width="100px"
	 height="40px" viewBox="0 0 100 40" enable-background="new 0 0 100 40" xml:space="preserve">
<g id="Layer_2">
</g>
<g id="Layer_1">
	<g>
		<path fill="#FFFFFF" d="M100,20.075c-0.055,11.135-8.168,19.416-19.01,19.403c-10.93-0.013-18.991-8.406-18.929-19.71
			C62.121,8.576,70.181,0.464,81.183,0.522C92.109,0.58,100.055,8.836,100,20.075z M76.905,2.666
			c-1.053,0.322-2.145,0.554-3.154,0.981c-5.995,2.537-10.709,9.51-9.783,18.653c1.436,14.187,16.578,19.111,26.33,12.869
			c0.648,0.047,1.097-0.327,1.566-0.701c5.728-4.566,7.31-10.766,6.395-17.613c-0.857-6.412-4.357-11.228-10.489-13.691
			C87.702,3.136,80.536,1.035,76.905,2.666z"/>
		<path fill="#EDB826" d="M90.299,35.169c-9.752,6.241-24.894,1.317-26.33-12.869c-0.926-9.143,3.788-16.116,9.783-18.653
			c1.009-0.427,2.1-0.659,3.154-0.981c0.142,3.779,0.528,7.544,1.384,11.216C80.21,22.127,82.995,29.937,90.299,35.169z"/>
	</g>
</g>
<g id="Layer_3">
</g>
</svg>
